HIERARCHY
ROOT Hips
{
	OFFSET -15.936317 98.213318 -3.140598
	CHANNELS 6 Xposition Yposition Zposition Xrotation Yrotation Zrotation
	JOINT Chest
	{
		OFFSET -3.600197 12.822876 2.960845
		CHANNELS 3 Xrotation Yrotation Zrotation
		JOINT Chest2
		{
			OFFSET -7.535387 18.441437 7.886552
			CHANNELS 3 Xrotation Yrotation Zrotation
			JOINT Chest3
			{
				OFFSET -3.773781 14.210815 2.575078
				CHANNELS 3 Xrotation Yrotation Zrotation
				JOINT Neck
				{
					OFFSET -2.364725 15.829163 6.516270
					CHANNELS 3 Xrotation Yrotation Zrotation
					JOINT Head
					{
						OFFSET 0.010231 9.109802 5.180647
						CHANNELS 3 Xrotation Yrotation Zrotation
						End Site
						{
							OFFSET 0.074718 9.126541 5.150576
						}
					}
				}
				JOINT LeftCollar
				{
					OFFSET -2.739534 10.117279 9.588528
					CHANNELS 3 Xrotation Yrotation Zrotation
					JOINT LeftUpArm
					{
						OFFSET 7.709089 -4.108063 15.237885
						CHANNELS 3 Xrotation Yrotation Zrotation
						JOINT LeftLowArm
						{
							OFFSET -15.838442 -14.551025 26.021900
							CHANNELS 3 Xrotation Yrotation Zrotation
							JOINT LeftHand
							{
								OFFSET -25.524338 -1.145355 15.752563
								CHANNELS 3 Xrotation Yrotation Zrotation
								End Site
								{
									OFFSET -5.578491 -0.250351 3.442818
								}
							}
						}
					}
				}
				JOINT RightCollar
				{
					OFFSET -6.113562 12.616287 2.294008
					CHANNELS 3 Xrotation Yrotation Zrotation
					JOINT RightUpArm
					{
						OFFSET 1.581104 11.676254 -13.025419
						CHANNELS 3 Xrotation Yrotation Zrotation
						JOINT RightLowArm
						{
							OFFSET -19.119488 27.759933 -1.888258
							CHANNELS 3 Xrotation Yrotation Zrotation
							JOINT RightHand
							{
								OFFSET -4.272846 20.335403 21.660313
								CHANNELS 3 Xrotation Yrotation Zrotation
								End Site
								{
									OFFSET -0.933872 4.444519 4.734070
								}
							}
						}
					}
				}
			}
		}
	}
	JOINT LeftUpLeg
	{
		OFFSET 7.276879 0.455521 6.874495
		CHANNELS 3 Xrotation Yrotation Zrotation
		JOINT LeftLowLeg
		{
			OFFSET 34.324615 -32.563164 2.334605
			CHANNELS 3 Xrotation Yrotation Zrotation
			JOINT LeftFoot
			{
				OFFSET 34.442112 -26.167038 -11.383988
				CHANNELS 3 Xrotation Yrotation Zrotation
				JOINT LeftToe
				{
					OFFSET 3.586147 -20.776730 10.725048
					CHANNELS 3 Xrotation Yrotation Zrotation
					End Site
					{
						OFFSET -4.818726 -11.173954 20.285007
					}
				}
			}
		}
	}
	JOINT RightUpLeg
	{
		OFFSET -7.276831 -0.455704 -6.874539
		CHANNELS 3 Xrotation Yrotation Zrotation
		JOINT RightLowLeg
		{
			OFFSET -26.686861 -36.657364 13.713526
			CHANNELS 3 Xrotation Yrotation Zrotation
			JOINT RightFoot
			{
				OFFSET 13.829185 -37.966797 -19.179565
				CHANNELS 3 Xrotation Yrotation Zrotation
				JOINT RightToe
				{
					OFFSET -9.737949 -15.946190 14.506836
					CHANNELS 3 Xrotation Yrotation Zrotation
					End Site
					{
						OFFSET -15.340740 -1.420277 17.949951
					}
				}
			}
		}
	}
}
MOTION
Frames: 13
Frame Time: 0.033333
-17.189838 85.378548 -7.417387 0.837027 -0.304422 2.068753 3.075341 -0.216188 3.218322 -0.743026 -0.745359 -0.221549 0.724505 -1.673518 -1.229432 -1.984861 -0.219329 -1.738356 -0.000001 0.000000 -0.000001 -2.293037 -2.124510 0.226730 -9.417594 -3.516634 -4.523928 4.145999 -8.685531 1.410349 -0.000000 0.000003 -0.000000 -3.081237 -1.514181 -0.666952 -0.545312 -1.584988 -4.376530 2.515254 4.277971 -7.021214 0.000001 -0.000003 -0.000004 -1.332861 -0.674070 0.450563 1.929798 1.181066 2.152383 -1.725511 -6.674590 -4.552646 0.000002 0.000003 0.000000 -5.619959 1.575224 -10.831012 2.360663 0.627716 13.170708 -1.992021 -6.492153 -4.946406 0.000001 -0.000001 0.000001 
-17.201647 85.181984 -7.623933 0.497080 -0.429676 1.859723 3.416107 -0.170088 3.413882 -1.264743 -1.337678 -0.126751 1.234500 -1.392657 -1.416339 -1.793165 -0.007415 -1.705077 -0.000003 -0.000000 -0.000000 -2.343099 -2.081620 0.283090 -8.691580 -3.762580 -4.333568 3.555992 -9.142565 0.990622 0.000000 0.000002 -0.000000 -2.857264 -1.482297 -0.685955 -0.459048 -1.468190 -3.928704 1.919944 4.081095 -7.399041 0.000001 -0.000003 -0.000005 -1.300721 -0.703110 0.662348 1.709941 1.108411 2.237186 -1.765682 -7.081065 -4.689664 -0.000004 0.000000 0.000003 -5.003928 1.380270 -10.659605 2.069228 0.480262 13.071736 -1.964321 -6.318392 -4.876256 0.000001 -0.000003 0.000001 
-17.210302 85.006401 -7.815902 0.020747 -0.150223 1.775860 3.486373 -0.253667 3.796950 -1.584800 -1.683575 -0.091151 1.991923 -1.432139 -1.770888 -1.874664 0.097115 -1.936114 -0.000001 -0.000001 -0.000000 -2.118870 -2.623846 0.201151 -7.359770 -5.360349 -4.819573 3.733818 -12.124834 0.654373 -0.000000 0.000002 -0.000000 -3.343656 -1.672513 -0.662848 -0.058012 -1.294738 -3.789648 1.878134 4.038361 -7.676532 0.000002 -0.000003 -0.000004 -1.287243 -0.682735 0.730519 1.958674 1.489717 2.348942 -1.950363 -6.996601 -4.848082 0.000001 0.000001 0.000003 -4.657284 1.278010 -10.678562 2.280400 0.471671 13.121618 -2.117222 -5.245725 -4.524955 -0.000001 -0.000001 -0.000001 
-17.209673 84.854630 -7.992164 -0.155324 -0.017231 1.709828 3.840021 -0.151391 3.858703 -1.692590 -1.912115 -0.033788 2.190463 -1.408933 -1.928321 -1.865372 -0.030034 -1.955643 -0.000005 0.000002 -0.000000 -1.996309 -2.516696 -0.022014 -7.806784 -4.688874 -5.091638 4.751863 -13.009006 0.800226 -0.000000 0.000002 -0.000000 -3.723721 -1.526424 -0.619925 -0.652694 -0.908120 -3.789527 2.717551 4.472465 -6.832950 0.000002 -0.000003 -0.000006 -1.080391 -0.544382 0.770480 2.028643 1.536632 2.521296 -1.551378 -6.973595 -4.472394 -0.000000 -0.000001 -0.000000 -4.857849 1.315751 -10.642553 2.450534 0.509342 13.394808 -2.258732 -5.704151 -4.814681 0.000001 -0.000006 -0.000000 
-17.210569 84.711678 -8.179382 0.266721 -0.365821 1.553482 3.499855 -0.250825 3.762826 -1.908114 -2.187633 0.017485 2.328684 -0.722251 -1.854074 -1.829498 0.250121 -1.975956 -0.000000 -0.000000 -0.000002 -1.549606 -2.726075 -0.070617 -7.213867 -5.521645 -5.424953 4.947523 -13.861630 0.636317 0.000000 -0.000000 -0.000000 -3.954717 -1.545677 -0.486230 -0.957312 -1.082044 -3.768352 2.722044 4.663662 -7.073625 0.000001 -0.000003 -0.000004 -0.840740 -0.356178 0.908991 2.132473 1.593958 2.394920 -1.851689 -6.476650 -4.659144 -0.000000 -0.000003 0.000003 -5.547016 1.506028 -10.404103 2.585511 0.560967 13.379395 -2.262546 -5.855047 -4.882670 0.000001 0.000001 0.000000 
-17.217203 84.582672 -8.363607 0.572735 -0.506013 1.542884 3.463529 -0.215775 3.578120 -1.950937 -2.207736 0.046307 2.326358 -0.296387 -1.744576 -2.132410 -0.075752 -1.961702 -0.000003 -0.000000 -0.000001 -1.661372 -2.454348 0.135293 -8.166330 -4.984992 -5.159796 4.224449 -11.936000 0.676991 0.000000 0.000003 -0.000000 -4.188926 -1.757711 -0.319346 -1.175342 -1.561126 -3.973639 2.684850 4.572151 -7.453976 0.000004 -0.000003 -0.000005 -1.012769 -0.457042 0.908872 2.170940 1.536671 2.246868 -2.014457 -5.935065 -4.622612 -0.000001 -0.000003 0.000001 -5.884669 1.624006 -10.286226 2.229411 0.537277 13.396835 -2.251342 -6.513241 -5.244346 0.000001 -0.000005 -0.000002 
-17.214457 84.468643 -8.544347 0.703028 -0.601550 1.579132 3.300170 -0.232820 3.521742 -1.739227 -2.028172 0.040556 2.095145 -0.414459 -1.762669 -2.023195 -0.047423 -2.065576 -0.000000 0.000003 -0.000000 -1.593464 -2.301625 -0.115654 -7.270633 -5.351843 -5.613989 5.206030 -13.470211 0.755985 -0.000000 0.000003 0.000000 -3.842841 -1.377021 -0.478978 -1.191550 -0.941732 -4.018725 3.136264 4.761242 -6.444660 -0.000000 -0.000001 -0.000004 -1.199387 -0.550172 0.850923 2.207299 1.616776 2.318052 -2.143166 -6.236411 -4.886666 -0.000001 0.000000 0.000005 -5.740313 1.535571 -10.515369 2.100637 0.513544 13.557674 -2.331992 -6.423230 -5.200347 -0.000000 -0.000006 -0.000000 
-17.213066 84.357368 -8.725120 0.604957 -0.530042 1.623180 3.412165 -0.186836 3.516524 -1.819540 -1.998840 -0.084155 1.923298 -0.327986 -1.592785 -1.793889 0.116391 -1.976646 0.000001 0.000001 0.000001 -2.004146 -2.253668 -0.139831 -6.828681 -4.706573 -5.469027 5.972050 -15.376238 0.479559 0.000000 0.000002 0.000001 -3.634740 -1.287251 -0.735540 -1.129885 -0.710718 -4.231028 3.159970 4.879443 -5.403252 -0.000002 0.000000 -0.000000 -1.215794 -0.555019 0.845379 2.480825 1.751063 2.259508 -2.190780 -6.434525 -5.098668 0.000000 -0.000003 0.000001 -5.604024 1.484973 -10.725263 1.950501 0.585025 13.812301 -2.385632 -6.312487 -5.102928 0.000002 -0.000006 -0.000001 
-17.203001 84.266968 -8.875492 0.497001 -0.154959 1.696636 3.555622 -0.179360 3.614902 -1.659377 -1.736640 -0.166045 1.973290 -0.823105 -1.743748 -2.023274 -0.197287 -1.925217 0.000001 -0.000000 -0.000001 -2.275085 -1.864984 -0.042256 -8.506947 -3.113380 -4.730624 5.403461 -13.831162 0.761189 0.000000 0.000002 0.000000 -3.738414 -1.372030 -0.674888 -1.455413 -1.156258 -4.289840 3.520101 4.817958 -5.815041 0.000006 -0.000000 -0.000001 -1.278045 -0.641663 0.700884 2.604528 1.828622 2.398450 -2.057239 -6.514282 -4.939656 -0.000003 -0.000002 0.000002 -5.695556 1.551088 -10.963652 2.510416 0.610245 14.002687 -2.482535 -5.287409 -4.719078 0.000002 -0.000003 -0.000001 
-17.203808 84.188454 -9.033779 0.501626 -0.334812 1.592500 3.945766 -0.013551 3.534873 -2.120832 -2.254686 -0.107086 2.328210 -0.299687 -1.836813 -2.280883 -0.355155 -1.943306 -0.000001 0.000002 -0.000000 -2.050055 -1.873433 -0.013930 -9.283013 -2.712665 -4.544054 4.652415 -11.365074 0.813964 -0.000000 0.000002 -0.000000 -3.793423 -1.311307 -0.449917 -1.788299 -1.458340 -4.291500 3.581193 4.815311 -6.236545 0.000001 -0.000002 -0.000001 -1.471950 -0.776165 0.824012 2.630228 1.752982 2.269554 -2.163111 -6.675429 -5.158215 -0.000004 0.000000 0.000003 -5.718474 1.547943 -10.746212 2.787226 0.685528 13.858687 -2.664887 -4.477750 -4.442804 0.000002 0.000001 0.000000 
-17.206341 84.125107 -9.188715 0.457137 -0.076466 1.589657 3.686239 -0.145023 3.614097 -1.436131 -1.443871 -0.187828 2.193015 -1.359410 -1.875034 -2.415071 -0.370768 -1.967574 -0.000001 -0.000004 -0.000002 -1.843323 -1.754772 0.058080 -10.425614 -2.599802 -4.351411 3.797397 -7.308408 1.412005 -0.000000 0.000002 -0.000000 -3.859075 -1.356503 -0.263626 -1.572854 -1.716596 -4.282611 2.880954 4.679374 -6.872988 -0.000000 -0.000001 -0.000004 -1.453451 -0.870633 0.821468 2.294154 1.423169 2.282726 -2.342255 -6.142906 -5.047848 0.000003 0.000000 0.000004 -5.657752 1.601609 -10.784518 3.207580 0.752757 13.825736 -2.844467 -4.376019 -4.498269 0.000001 -0.000001 -0.000001 
-17.210306 84.064926 -9.342348 0.775933 -0.342638 1.528856 3.546368 -0.147185 3.495513 -1.272203 -1.198590 -0.235821 2.067157 -1.413263 -1.760988 -2.649847 -0.388210 -2.128840 -0.000002 0.000001 0.000000 -1.719945 -1.673582 0.025946 -11.108282 -2.222740 -4.322768 3.664125 -4.592500 1.859471 0.000000 -0.000002 -0.000000 -3.599654 -1.156118 -0.160357 -2.165781 -2.004245 -4.252335 2.875754 4.831710 -6.934788 0.000004 -0.000003 -0.000004 -1.469598 -0.932713 0.941800 2.075166 1.264598 2.111492 -2.808897 -5.983908 -5.479561 -0.000000 -0.000003 0.000001 -6.060004 1.744932 -10.687414 3.447512 0.774678 13.737645 -2.796052 -4.387327 -4.441441 0.000001 0.000001 0.000000 
-17.211609 84.009651 -9.494254 0.842316 -0.098263 1.605848 3.296366 -0.224111 3.484957 -1.173116 -1.186296 -0.210581 2.053006 -1.260010 -1.759702 -2.759050 -0.931675 -2.070946 -0.000000 -0.000003 -0.000000 -2.187788 -1.245500 -0.047101 -11.355108 -1.200921 -4.105847 3.808646 -1.514485 2.589271 -0.000000 0.000003 0.000000 -3.505219 -1.047660 -0.242071 -2.546714 -2.009320 -4.578957 2.923686 4.679292 -6.084216 0.000003 -0.000002 -0.000001 -1.544388 -0.874155 0.817019 2.213676 1.367815 2.246808 -2.548583 -6.431107 -5.448553 -0.000000 0.000000 0.000003 -5.713785 1.594591 -10.956556 2.477642 0.696616 14.067523 -2.678477 -5.378181 -4.882878 0.000001 -0.000004 0.000001 
